<!-- frontend/assets/icons/brain.svg -->
<svg xmlns="http://www.w3.org/2000/svg" viewBox="0 0 24 24" fill="none" stroke="currentColor" stroke-width="2" stroke-linecap="round" stroke-linejoin="round">
  <path d="M12 2a3 3 0 0 0-3 3v1a3 3 0 0 0 6 0V5a3 3 0 0 0-3-3z"/>
  <path d="M9 8a3 3 0 0 0-3 3v1a3 3 0 0 0 6 0v-1a3 3 0 0 0-3-3z"/>
  <path d="M9 14a3 3 0 0 0-3 3v1a3 3 0 0 0 6 0v-1a3 3 0 0 0-3-3z"/>
  <path d="M15 8a3 3 0 0 1 3 3v1a3 3 0 0 1-6 0v-1a3 3 0 0 1 3-3z"/>
  <path d="M15 14a3 3 0 0 1 3 3v1a3 3 0 0 1-6 0v-1a3 3 0 0 1 3-3z"/>
  <line x1="9" y1="5" x2="15" y2="5"/>
  <line x1="9" y1="11" x2="15" y2="11"/>
  <line x1="9" y1="17" x2="15" y2="17"/>
</svg>